<svg width="23" height="23" viewBox="0 0 23 23" fill="none" xmlns="http://www.w3.org/2000/svg">
<g id="Group 182">
<g id="Group">
<path id="Vector" d="M7.09192 22.1183L9.77527 19.3583C8.81693 19.1666 7.93526 18.7833 7.13025 18.2466L7.09192 22.1183Z" fill="#FFE62E"/>
<path id="Vector_2" d="M15.9085 0.881653L13.2252 3.64165C14.1835 3.83332 15.0652 4.21665 15.8702 4.75332L15.9085 0.881653Z" fill="#FFE62E"/>
<path id="Vector_3" d="M0.881958 15.9083L4.75354 15.87C4.21689 15.065 3.83356 14.1833 3.6419 13.225L0.881958 15.9083Z" fill="#FFE62E"/>
<path id="Vector_4" d="M22.1188 7.09164L18.2471 7.12998C18.7454 7.93498 19.1287 8.81664 19.3587 9.77498L22.1188 7.09164Z" fill="#FFE62E"/>
<path id="Vector_5" d="M0.881958 7.09164L3.6419 9.77498C3.83356 8.81664 4.21689 7.93498 4.75354 7.12998L0.881958 7.09164Z" fill="#FFE62E"/>
<path id="Vector_6" d="M22.1188 15.9083L19.3587 13.225C19.1671 14.1833 18.7837 15.065 18.2471 15.87L22.1188 15.9083Z" fill="#FFE62E"/>
<path id="Vector_7" d="M7.09186 0.881653L7.13019 4.75332C7.9352 4.25499 8.81687 3.87165 9.77521 3.64165L7.09186 0.881653Z" fill="#FFE62E"/>
<path id="Vector_8" d="M15.9086 22.1183L15.8702 18.2466C15.0652 18.7833 14.1836 19.1666 13.2252 19.3583L15.9086 22.1183Z" fill="#FFE62E"/>
</g>
<g id="Group_2">
<path id="Vector_9" d="M4.90677 16.1L3.37341 19.665L6.93848 18.1316C6.13346 17.5566 5.44345 16.8666 4.90677 16.1Z" fill="#FFCE31"/>
<path id="Vector_10" d="M18.0933 6.9L19.6266 3.33499L16.1 4.86833C16.8666 5.44333 17.5566 6.13333 18.0933 6.9Z" fill="#FFCE31"/>
<path id="Vector_11" d="M3.60339 10.0817L0 11.5L3.60339 12.9184C3.48839 12.4584 3.45006 11.9984 3.45006 11.5C3.45006 11.0017 3.48839 10.5417 3.60339 10.0817Z" fill="#FFCE31"/>
<path id="Vector_12" d="M19.3966 12.9184L23 11.5L19.3966 10.0817C19.4733 10.5417 19.5499 11.04 19.5499 11.5C19.5499 11.9984 19.5116 12.4584 19.3966 12.9184Z" fill="#FFCE31"/>
<path id="Vector_13" d="M6.8999 4.90666L3.33496 3.37332L4.86827 6.93832C5.44326 6.13332 6.13325 5.44332 6.8999 4.90666Z" fill="#FFCE31"/>
<path id="Vector_14" d="M16.1 18.0933L19.665 19.6266L18.1317 16.0616C17.5567 16.8666 16.8667 17.5566 16.1 18.0933Z" fill="#FFCE31"/>
<path id="Vector_15" d="M12.9185 3.60333L11.5001 0L10.0818 3.60333C10.5418 3.52667 11.0401 3.45 11.5001 3.45C11.9601 3.45 12.4585 3.48833 12.9185 3.60333Z" fill="#FFCE31"/>
<path id="Vector_16" d="M10.0818 19.3967L11.5001 23L12.9185 19.3967C12.4585 19.5117 11.9985 19.55 11.5001 19.55C11.0018 19.55 10.5418 19.5117 10.0818 19.3967Z" fill="#FFCE31"/>
<path id="Vector_17" d="M11.5 18.7833C15.5225 18.7833 18.7833 15.5225 18.7833 11.5C18.7833 7.47753 15.5225 4.21667 11.5 4.21667C7.47753 4.21667 4.21667 7.47753 4.21667 11.5C4.21667 15.5225 7.47753 18.7833 11.5 18.7833Z" fill="#FFCE31"/>
</g>
</g>
</svg>
